<?xml version="1.0" encoding="UTF-8" standalone="no"?>
<svg
   xmlns:dc="http://purl.org/dc/elements/1.1/"
   xmlns:cc="http://creativecommons.org/ns#"
   xmlns:rdf="http://www.w3.org/1999/02/22-rdf-syntax-ns#"
   xmlns:svg="http://www.w3.org/2000/svg"
   xmlns="http://www.w3.org/2000/svg"
   xmlns:sodipodi="http://sodipodi.sourceforge.net/DTD/sodipodi-0.dtd"
   xmlns:inkscape="http://www.inkscape.org/namespaces/inkscape"
   width="180"
   height="180"
   viewBox="0 0 47.625001 47.625001"
   version="1.1"
   id="svg32"
   inkscape:version="1.0.1 (3bc2e813f5, 2020-09-07)"
   sodipodi:docname="OpenBikeSensor.svg">
  <title
     id="title25">ObenBikeSensor Logo</title>
  <defs
     id="defs26" />
  <sodipodi:namedview
     id="base"
     pagecolor="#ffffff"
     bordercolor="#666666"
     borderopacity="1.0"
     inkscape:pageopacity="0.0"
     inkscape:pageshadow="2"
     inkscape:zoom="1.979899"
     inkscape:cx="201.42447"
     inkscape:cy="210.76485"
     inkscape:document-units="mm"
     inkscape:current-layer="layer1"
     inkscape:document-rotation="0"
     showgrid="false"
     inkscape:window-width="1920"
     inkscape:window-height="1142"
     inkscape:window-x="0"
     inkscape:window-y="27"
     inkscape:window-maximized="1"
     fit-margin-top="0"
     fit-margin-left="0"
     fit-margin-right="0"
     fit-margin-bottom="0"
     inkscape:pagecheckerboard="false"
     units="px" />
  <metadata
     id="metadata29">
    <rdf:RDF>
      <cc:Work
         rdf:about="">
        <dc:format>image/svg+xml</dc:format>
        <dc:type
           rdf:resource="http://purl.org/dc/dcmitype/StillImage" />
        <dc:title>ObenBikeSensor Logo</dc:title>
        <dc:identifier>https://www.openbikesensor.org/</dc:identifier>
        <dc:contributor>
          <cc:Agent>
            <dc:title>The font is made available under the SIL Open Font v1.1 license.
The metainfo for packaging is made available under CC-BY-SA 4.0 license.

Copyright © 2017 Datto Inc.  https://www.datto.com/fonts/d-din/</dc:title>
          </cc:Agent>
        </dc:contributor>
        <dc:date>05.01.2021</dc:date>
        <cc:license
           rdf:resource="http://creativecommons.org/licenses/by-nc-sa/4.0/" />
      </cc:Work>
      <cc:License
         rdf:about="http://creativecommons.org/licenses/by-nc-sa/4.0/">
        <cc:permits
           rdf:resource="http://creativecommons.org/ns#Reproduction" />
        <cc:permits
           rdf:resource="http://creativecommons.org/ns#Distribution" />
        <cc:requires
           rdf:resource="http://creativecommons.org/ns#Notice" />
        <cc:requires
           rdf:resource="http://creativecommons.org/ns#Attribution" />
        <cc:prohibits
           rdf:resource="http://creativecommons.org/ns#CommercialUse" />
        <cc:permits
           rdf:resource="http://creativecommons.org/ns#DerivativeWorks" />
        <cc:requires
           rdf:resource="http://creativecommons.org/ns#ShareAlike" />
      </cc:License>
    </rdf:RDF>
  </metadata>
  <g
     inkscape:label="text"
     inkscape:groupmode="layer"
     id="layer1"
     style="display:inline"
     transform="translate(-50.984116,-107.55921)">
    <g
       id="g453"
       transform="matrix(0.40064407,0,0,0.40722908,30.654488,63.527687)">
      <path
         style="fill:#000000;fill-rule:evenodd;stroke-width:1.01015"
         d="m 240.02293,503.36909 v -35.86042 h 10.10153 10.10152 v 12.62691 12.6269 h 42.93149 42.93148 v 10.60661 10.6066 h -42.93148 -42.93149 v 12.62691 12.6269 h -10.10152 -10.10153 z"
         id="path401"
         transform="scale(0.26458333)" />
      <path
         style="fill:#000000;fill-rule:evenodd;stroke-width:1.01015"
         d="m 384.90976,558.4839 c -8.01151,-1.91689 -14.1203,-8.67189 -17.39451,-19.23458 -1.45394,-4.69046 -1.72833,-9.9859 -1.72833,-33.35485 0,-30.98455 0.59528,-34.83053 6.80973,-43.99648 4.49493,-6.62975 9.40731,-9.03653 18.44409,-9.03653 8.64706,0 13.7048,2.33029 18.42657,8.48983 6.19075,8.07582 6.82768,12.28073 6.82354,45.04825 -0.004,28.46722 -0.0715,29.46557 -2.40527,35.35534 -5.17516,13.06071 -16.64086,19.68036 -28.97582,16.72902 z m 11.60077,-17.69467 c 5.86294,-3.03185 6.61847,-6.61224 6.96982,-33.0293 0.34879,-26.22531 -0.20608,-30.31732 -4.80968,-35.46964 -5.21109,-5.83222 -14.51084,-3.70354 -18.06837,4.13579 -1.42745,3.14551 -1.68339,7.55371 -1.68339,28.99412 0,22.81142 0.19069,25.70769 1.94959,29.60997 3.01098,6.68012 9.34862,9.0135 15.64203,5.75906 z"
         id="path403"
         transform="scale(0.26458333)" />
      <path
         style="fill:#000000;fill-rule:evenodd;stroke-width:1.01015"
         d="m 428.92146,505.38939 v -52.02285 h 13.08226 c 17.73684,0 22.4243,1.1082 27.91596,6.59986 6.27145,6.27145 8.88214,15.24842 8.30541,28.55847 -0.63336,14.61701 -5.17385,23.28004 -14.45337,27.57632 -2.99701,1.38757 -6.45394,1.87647 -13.38452,1.89292 l -9.34391,0.0222 v 19.69797 19.69798 h -6.06092 -6.06091 z m 28.58935,-4.61331 c 5.53376,-1.53668 7.76758,-5.66876 7.77236,-14.37721 0.007,-12.49556 -3.36126,-15.85974 -15.87835,-15.85974 h -8.36153 v 14.98393 c 0,8.24116 0.30304,15.28697 0.67343,15.65736 1.0491,1.0491 11.52597,0.78089 15.79409,-0.40434 z"
         id="path405"
         transform="scale(0.26458333)" />
      <path
         style="fill:#000000;fill-rule:evenodd;stroke-width:1.01015"
         d="m 488.52046,505.89447 v -52.52793 h 22.72843 22.72843 v 8.58629 8.5863 h -16.16244 -16.16244 v 13.13198 13.13199 h 13.63706 13.63706 v 8.58629 8.5863 H 515.2895 501.65244 v 13.63706 13.63706 h 16.16244 16.16244 v 8.58629 8.5863 h -22.72843 -22.72843 z"
         id="path407"
         transform="scale(0.26458333)" />
      <path
         style="fill:#000000;fill-rule:evenodd;stroke-width:1.01015"
         d="m 544.07885,505.34324 v -52.06901 l 6.78747,0.29869 6.78747,0.29869 12.73,31.1682 c 7.0015,17.1425 13.23906,31.91598 13.86125,32.82995 0.84624,1.24309 1.14622,-6.67321 1.19066,-31.42073 l 0.0594,-33.08249 h 6.56599 6.56599 v 52.02285 52.02286 h -6.90504 -6.90505 l -12.99304,-31.88387 c -7.14617,-17.53613 -13.35756,-32.10915 -13.80308,-32.3845 -0.44552,-0.27534 -0.81004,14.0724 -0.81004,31.88387 v 32.3845 h -6.56599 -6.56599 z"
         id="path409"
         transform="scale(0.26458333)" />
      <path
         style="fill:#000000;fill-rule:evenodd;stroke-width:1.01015"
         d="M 240.02293,631.15338 V 577.6153 h 17.21284 c 19.47478,0 22.39499,0.79963 28.07206,7.68689 8.51547,10.33075 8.0101,32.96229 -0.93582,41.90822 l -2.03411,2.03411 3.21254,3.65889 c 5.34118,6.08326 6.42521,9.69686 6.44473,21.48348 0.0194,11.73717 -1.02934,15.88428 -5.61957,22.2209 -5.10441,7.04643 -8.65418,8.03569 -28.92754,8.0615 l -17.42513,0.0222 z m 34.61153,34.35251 c 3.114,-2.44948 5.30465,-10.5546 4.30004,-15.90961 -1.75686,-9.36491 -5.64583,-11.75482 -18.20344,-11.18667 l -7.07107,0.31992 -0.28027,14.39467 -0.28028,14.39468 h 9.48796 c 7.94689,0 9.90361,-0.32696 12.04706,-2.01299 z M 271.3075,620.7423 c 7.26338,-2.49824 9.26926,-15.96143 3.41472,-22.91915 -2.50552,-2.97764 -2.73446,-3.03526 -12.06065,-3.03526 h -9.50666 v 12.96363 c 0,7.12999 0.30305,13.26667 0.67344,13.63706 1.11343,1.11342 13.71796,0.64739 17.47915,-0.64628 z"
         id="path413"
         transform="scale(0.26458333)" />
      <path
         style="fill:#000000;fill-rule:evenodd;stroke-width:1.01015"
         d="M 304.67269,631.15338 V 577.6153 h 6.566 6.56599 v 53.53808 53.53809 h -6.56599 -6.566 z"
         id="path415"
         transform="scale(0.26458333)" />
      <path
         style="fill:#000000;fill-rule:evenodd;stroke-width:1.01015"
         d="M 332.95697,631.15338 V 577.6153 h 6.56599 6.56599 v 24.95077 c 0,15.10605 0.36452,24.57212 0.92385,23.99112 0.50812,-0.52781 6.45595,-11.75565 13.21742,-24.95077 l 12.29356,-23.99112 h 8.05541 c 4.43047,0 7.86351,0.34093 7.62897,0.75761 -0.23454,0.41669 -5.55505,10.01092 -11.82337,21.32052 l -11.39695,20.5629 12.37997,30.95488 c 6.80898,17.02518 12.6136,31.54322 12.89915,32.26232 0.40374,1.0167 -1.22419,1.24132 -7.32077,1.01015 l -7.83996,-0.29729 -9.10775,-23.48604 c -5.00926,-12.91733 -9.37895,-23.48464 -9.71041,-23.48292 -0.33147,0.002 -2.76187,3.86633 -5.4009,8.58801 l -4.79822,8.58487 v 15.15058 15.15058 h -6.56599 -6.56599 z"
         id="path417"
         transform="scale(0.26458333)" />
      <path
         style="fill:#000000;fill-rule:evenodd;stroke-width:1.01015"
         d="M 398.61688,631.15338 V 577.6153 h 23.73859 23.73858 v 8.5863 8.58629 h -16.66752 -16.66751 v 13.63706 13.63706 h 14.14213 14.14214 v 8.5863 8.58629 h -14.14214 -14.14213 v 14.14214 14.14214 h 16.66751 16.66752 v 8.58629 8.5863 h -23.73858 -23.73859 z"
         id="path419"
         transform="scale(0.26458333)" />
      <path
         style="fill:#000000;fill-rule:evenodd;stroke-width:1.01015"
         d="M 575.39358,651.86151 V 639.2346 H 515.2895 455.18542 v -10.10152 -10.10153 h 60.10408 60.10408 v -12.6269 -12.62691 h 10.10152 10.10153 v 35.35534 35.35534 H 585.4951 575.39358 Z"
         id="path421"
         transform="scale(0.26458333)" />
      <path
         style="fill:#000000;fill-rule:evenodd;stroke-width:1.01015"
         d="m 254.08568,807.55922 c -9.7468,-3.48446 -15.21048,-11.83576 -16.77487,-25.64057 l -0.60098,-5.3033 h 6.07313 6.07313 l 0.62175,3.78807 c 1.53055,9.32506 8.4043,14.00169 16.85737,11.46909 5.61489,-1.68226 8.02536,-5.80974 8.02536,-13.74193 0,-8.78657 -2.28623,-12.08845 -9.80256,-14.15732 -15.20607,-4.18547 -19.76035,-7.24809 -23.62539,-15.88737 -1.97987,-4.42548 -2.37813,-7.00208 -2.38941,-15.45861 -0.0128,-9.58906 0.18058,-10.53482 3.51101,-17.17259 4.69445,-9.35632 9.51893,-12.82476 18.6473,-13.40601 5.21565,-0.33211 7.40408,0.0266 11.11109,1.8211 7.10945,3.44163 12.26305,12.24759 14.04909,24.00571 l 0.65212,4.29315 h -6.57793 c -6.29612,0 -6.57792,-0.10537 -6.57792,-2.45962 0,-3.55237 -1.56218,-7.13639 -4.16921,-9.56521 -2.50528,-2.33402 -9.61515,-2.92049 -13.05934,-1.07721 -3.00443,1.60792 -4.99481,6.42641 -4.99481,12.09189 0,9.11233 3.18576,12.42396 14.64721,15.22589 11.63441,2.8442 17.41881,8.18893 20.27259,18.73165 2.27779,8.41483 1.59261,21.21436 -1.51224,28.24958 -5.47965,12.41623 -18.48051,18.47501 -30.45649,14.19361 z"
         id="path423"
         transform="scale(0.26458333)" />
      <path
         style="fill:#000000;fill-rule:evenodd;stroke-width:1.01015"
         d="m 298.61178,755.40215 v -52.52794 h 22.72843 22.72843 v 8.5863 8.5863 H 327.9062 311.74376 v 13.13198 13.13198 h 13.63706 13.63706 v 8.5863 8.5863 h -13.63706 -13.63706 v 14.14213 14.14214 h 16.16244 16.16244 v 8.08122 8.08122 h -22.72843 -22.72843 z"
         id="path425"
         transform="scale(0.26458333)" />
      <path
         style="fill:#000000;fill-rule:evenodd;stroke-width:1.01015"
         d="m 355.18032,755.40215 v -52.52794 h 6.37553 6.37553 l 12.85146,31.56727 c 7.06831,17.362 13.28373,32.24912 13.81206,33.0825 0.61881,0.97611 0.96609,-10.2554 0.97605,-31.56727 l 0.0155,-33.0825 h 6.56599 6.566 v 52.57409 52.57409 l -6.66561,-0.2987 -6.66561,-0.29869 -13.28491,-32.65153 -13.2849,-32.65153 -0.26634,32.90407 -0.26634,32.90407 h -6.55219 -6.55219 z"
         id="path427"
         transform="scale(0.26458333)" />
      <path
         style="fill:#000000;fill-rule:evenodd;stroke-width:1.01015"
         d="m 433.44836,806.52236 c -3.79553,-1.65382 -9.07168,-7.56593 -11.17276,-12.51948 -0.87494,-2.06276 -2.18875,-6.83923 -2.9196,-10.61438 l -1.3288,-6.86391 6.19126,0.29792 6.19126,0.29792 0.58407,3.53553 c 0.82854,5.01541 2.62182,7.89327 6.3259,10.1518 6.32813,3.85855 14.83723,1.59927 17.44023,-4.63061 1.70406,-4.07838 1.86277,-11.06557 0.34992,-15.40532 -1.35728,-3.89351 -3.83671,-5.53349 -12.33365,-8.15793 -9.28931,-2.86918 -12.07632,-4.47783 -16.29335,-9.40448 -4.51227,-5.27157 -5.87928,-10.12391 -5.78538,-20.53571 0.15341,-17.00938 6.32106,-27.01874 18.29321,-29.68769 9.44408,-2.10537 18.88099,2.40489 23.34661,11.15823 1.09014,2.13685 2.69624,6.67286 3.56911,10.08002 1.87378,7.31407 1.43222,7.90519 -5.92274,7.9289 -4.47364,0.0144 -4.79823,-0.15876 -4.79823,-2.56008 0,-3.37284 -2.44801,-8.01361 -5.26976,-9.99004 -1.23796,-0.8671 -4.23022,-1.57655 -6.64946,-1.57655 -7.76375,0 -12.59682,7.49399 -10.84734,16.81951 1.02669,5.47277 4.98779,8.74026 14.39249,11.87231 11.29866,3.7628 14.36635,6.02117 17.97052,13.22951 2.81628,5.63255 3.03044,6.84626 3.03013,17.1726 -2.7e-4,9.4552 -0.34911,11.88243 -2.33999,16.2819 -4.43018,9.78989 -12.10891,14.56604 -23.29304,14.48821 -3.12475,-0.0217 -7.05353,-0.63742 -8.73061,-1.36818 z"
         id="path431"
         transform="scale(0.26458333)" />
      <path
         style="fill:#000000;fill-rule:evenodd;stroke-width:1.01015"
         d="m 495.07778,807.05632 c -5.40964,-2.45755 -9.90831,-7.78758 -12.62098,-14.95335 -5.11907,-13.5225 -5.1074,-59.90922 0.0185,-73.45101 4.46055,-11.78412 12.66067,-17.42901 24.11488,-16.60049 11.97283,0.86604 19.71765,8.89134 22.85039,23.67794 2.01585,9.51484 2.04895,49.67557 0.0487,59.1126 -2.44554,11.538 -7.82978,19.15118 -15.93509,22.5318 -5.02118,2.09427 -13.48778,1.94878 -18.47639,-0.31749 z m 17.72256,-18.35792 c 4.39267,-4.70236 5.22902,-11.02602 4.84534,-36.63572 -0.38594,-25.7615 -1.18846,-28.94284 -8.16035,-32.3496 -7.21055,-3.52337 -13.70844,0.41586 -16.04388,9.72631 -1.82925,7.29248 -1.83569,44.78604 -0.009,51.9679 1.78934,7.03487 5.61953,10.36035 11.93271,10.36035 3.78584,0 5.05889,-0.52552 7.43507,-3.06924 z"
         id="path433"
         transform="scale(0.26458333)" />
      <path
         style="fill:#000000;fill-rule:evenodd;stroke-width:1.01015"
         d="m 542.05854,755.30029 v -52.62978 l 16.92006,0.38417 c 18.30586,0.41563 20.38377,0.94495 25.70473,6.54788 1.49807,1.57746 3.77091,5.14095 5.05076,7.91887 2.00154,4.34434 2.327,6.67553 2.327,16.66751 0,10.71938 -0.22179,12.06843 -2.87114,17.46381 -1.57912,3.21588 -4.19289,6.82428 -5.80837,8.01865 -1.61548,1.19438 -2.93724,2.69518 -2.93724,3.33511 0,0.63993 3.40926,10.88522 7.57614,22.76729 4.16688,11.88208 7.57615,21.7281 7.57615,21.88003 0,0.15194 -3.38989,0.27625 -7.53309,0.27625 h -7.53309 l -6.795,-21.2132 -6.795,-21.21321 h -5.87496 -5.87496 v 21.21321 21.2132 h -6.566 -6.56599 z m 33.47446,-8.81982 c 2.70487,-2.41681 3.27483,-3.74204 3.67267,-8.53948 0.64422,-7.76843 -0.34881,-12.1351 -3.4693,-15.25559 -2.44777,-2.44777 -3.28611,-2.63859 -11.59222,-2.63859 h -8.95362 v 14.64721 14.64721 h 8.57035 c 7.98252,0 8.78998,-0.19622 11.77212,-2.86076 z"
         id="path435"
         transform="scale(0.26458333)" />
    </g>
    <path
       style="fill:#000000;fill-rule:evenodd;stroke-width:1.01015"
       d=""
       id="path411"
       transform="scale(0.26458333)" />
  </g>
</svg>
